<svg width="22" height="22" viewBox="0 0 22 22" fill="none" xmlns="http://www.w3.org/2000/svg">
<g id="Support">
<path id="Vector" d="M4.82006 16.3335H4.19004C3.52166 16.3335 2.88066 16.0525 2.40805 15.5524C1.93543 15.0524 1.66992 14.3741 1.66992 13.6668V11.0002C1.66992 10.2929 1.93543 9.61464 2.40805 9.11454C2.88066 8.61445 3.52166 8.3335 4.19004 8.3335H4.82006C4.98716 8.3335 5.14741 8.40373 5.26556 8.52876C5.38371 8.65378 5.45009 8.82335 5.45009 9.00016V15.6668C5.45009 15.8436 5.38371 16.0132 5.26556 16.1382C5.14741 16.2633 4.98716 16.3335 4.82006 16.3335Z" stroke="#FF603D" stroke-width="2" stroke-linecap="round" stroke-linejoin="round"/>
<path id="Vector_2" d="M18.0511 16.3335H17.421C17.2539 16.3335 17.0937 16.2633 16.9755 16.1382C16.8574 16.0132 16.791 15.8436 16.791 15.6668V9.00016C16.791 8.82335 16.8574 8.65378 16.9755 8.52876C17.0937 8.40373 17.2539 8.3335 17.421 8.3335H18.0511C18.7194 8.3335 19.3604 8.61445 19.8331 9.11454C20.3057 9.61464 20.5712 10.2929 20.5712 11.0002V13.6668C20.5712 14.3741 20.3057 15.0524 19.8331 15.5524C19.3604 16.0525 18.7194 16.3335 18.0511 16.3335Z" stroke="#FF603D" stroke-width="2" stroke-linecap="round" stroke-linejoin="round"/>
<path id="Vector_3" d="M4.18945 8.33333C4.18945 6.38841 4.91961 4.52315 6.21929 3.14788C7.51898 1.77262 9.28173 1 11.1198 1V1C12.9578 1 14.7206 1.77262 16.0202 3.14788C17.3199 4.52315 18.0501 6.38841 18.0501 8.33333" stroke="#FF603D" stroke-width="2" stroke-linecap="round" stroke-linejoin="round"/>
<path id="Vector_4" d="M13.6406 19.6668H15.5307C16.1991 19.6668 16.8401 19.3859 17.3127 18.8858C17.7853 18.3857 18.0508 17.7074 18.0508 17.0002V16.3335" stroke="#FF603D" stroke-width="2" stroke-linecap="round" stroke-linejoin="round"/>
<path id="Vector_5" d="M12.3814 21.0002H11.1214C10.7872 21.0002 10.4667 20.8597 10.2304 20.6096C9.99408 20.3596 9.86133 20.0205 9.86133 19.6668C9.86133 19.3132 9.99408 18.9741 10.2304 18.724C10.4667 18.474 10.7872 18.3335 11.1214 18.3335H12.3814C12.7156 18.3335 13.0361 18.474 13.2724 18.724C13.5087 18.9741 13.6415 19.3132 13.6415 19.6668C13.6415 20.0205 13.5087 20.3596 13.2724 20.6096C13.0361 20.8597 12.7156 21.0002 12.3814 21.0002Z" stroke="#FF603D" stroke-width="2" stroke-linecap="round" stroke-linejoin="round"/>
</g>
</svg>
